HIERARCHY
ROOT Hips
{
    OFFSET 0.000000 0.000000 0.000000
    CHANNELS 6 Xposition Yposition Zposition Zrotation Xrotation Yrotation
    JOINT Spine
    {
        OFFSET 0.000002 7.164412 0.000002
        CHANNELS 3 Zrotation Xrotation Yrotation
        JOINT Spine1
        {
            OFFSET -0.000001 20.126801 -0.000002
            CHANNELS 3 Zrotation Xrotation Yrotation
            JOINT Neck
            {
                OFFSET 0.000000 21.094069 0.000000
                CHANNELS 3 Zrotation Xrotation Yrotation
                JOINT Head
                {
                    OFFSET -0.000001 12.838277 1.776080
                    CHANNELS 3 Zrotation Xrotation Yrotation
                    End Site
                    {
                        OFFSET 0.000000 17.760757 0.000000
                    }
                }
            }
            JOINT LeftShoulder
            {
                OFFSET 3.550527 15.465700 -0.908803
                CHANNELS 3 Zrotation Xrotation Yrotation
                JOINT LeftArm
                {
                    OFFSET 12.513296 -0.000006 -0.000002
                    CHANNELS 3 Zrotation Xrotation Yrotation
                    JOINT LeftForeArm
                    {
                        OFFSET 24.225996 -0.000003 0.000001
                        CHANNELS 3 Zrotation Xrotation Yrotation
                        JOINT LeftHand
                        {
                            OFFSET 20.711399 -0.000005 -0.000004
                            CHANNELS 3 Zrotation Xrotation Yrotation
                            JOINT LeftHandThumb1
                            {
                                OFFSET 2.121969 -2.411331 3.375859
                                CHANNELS 3 Zrotation Xrotation Yrotation
                                JOINT LeftHandThumb2
                                {
                                    OFFSET 2.803208 0.000003 0.000001
                                    CHANNELS 3 Zrotation Xrotation Yrotation
                                    JOINT LeftHandThumb3
                                    {
                                        OFFSET 2.395929 0.000004 -0.000003
                                        CHANNELS 3 Zrotation Xrotation Yrotation
                                        End Site
                                        {
                                            OFFSET 2.127676 0.000000 0.000000
                                        }
                                    }
                                }
                            }
                            JOINT LeftHandIndex1
                            {
                                OFFSET 8.680775 0.000005 3.375860
                                CHANNELS 3 Zrotation Xrotation Yrotation
                                JOINT LeftHandIndex2
                                {
                                    OFFSET 4.218178 -0.000000 -0.000000
                                    CHANNELS 3 Zrotation Xrotation Yrotation
                                    JOINT LeftHandIndex3
                                    {
                                        OFFSET 2.109086 -0.000004 0.000002
                                        CHANNELS 3 Zrotation Xrotation Yrotation
                                        End Site
                                        {
                                            OFFSET 1.872952 0.000000 0.000000
                                        }
                                    }
                                }
                            }
                            JOINT LeftHandMiddle1
                            {
                                OFFSET 8.680778 -0.000002 1.118860
                                CHANNELS 3 Zrotation Xrotation Yrotation
                                JOINT LeftHandMiddle2
                                {
                                    OFFSET 4.640003 -0.000004 -0.000001
                                    CHANNELS 3 Zrotation Xrotation Yrotation
                                    JOINT LeftHandMiddle3
                                    {
                                        OFFSET 2.530911 0.000002 -0.000001
                                        CHANNELS 3 Zrotation Xrotation Yrotation
                                        End Site
                                        {
                                            OFFSET 2.247544 0.000000 0.000000
                                        }
                                    }
                                }
                            }
                            JOINT LeftHandRing1
                            {
                                OFFSET 8.198517 0.000004 -1.118860
                                CHANNELS 3 Zrotation Xrotation Yrotation
                                JOINT LeftHandRing2
                                {
                                    OFFSET 4.218183 -0.000002 -0.000002
                                    CHANNELS 3 Zrotation Xrotation Yrotation
                                    JOINT LeftHandRing3
                                    {
                                        OFFSET 2.109094 0.000005 -0.000000
                                        CHANNELS 3 Zrotation Xrotation Yrotation
                                        End Site
                                        {
                                            OFFSET 1.872952 0.000000 0.000000
                                        }
                                    }
                                }
                            }
                            JOINT LeftHandPinky1
                            {
                                OFFSET 7.716254 0.000002 -3.375863
                                CHANNELS 3 Zrotation Xrotation Yrotation
                                JOINT LeftHandPinky2
                                {
                                    OFFSET 3.374536 0.000002 0.000001
                                    CHANNELS 3 Zrotation Xrotation Yrotation
                                    JOINT LeftHandPinky3
                                    {
                                        OFFSET 1.687274 -0.000002 -0.000004
                                        CHANNELS 3 Zrotation Xrotation Yrotation
                                        End Site
                                        {
                                            OFFSET 1.498360 0.000000 0.000000
                                        }
                                    }
                                }
                            }
                        }
                    }
                }
            }
            JOINT RightShoulder
            {
                OFFSET -3.550529 15.465699 -0.908801
                CHANNELS 3 Zrotation Xrotation Yrotation
                JOINT RightArm
                {
                    OFFSET -12.513299 -0.000001 -0.000000
                    CHANNELS 3 Zrotation Xrotation Yrotation
                    JOINT RightForeArm
                    {
                        OFFSET -24.226000 -0.000003 -0.000001
                        CHANNELS 3 Zrotation Xrotation Yrotation
                        JOINT RightHand
                        {
                            OFFSET -20.711397 -0.000003 -0.000002
                            CHANNELS 3 Zrotation Xrotation Yrotation
                            JOINT RightHandThumb1
                            {
                                OFFSET -2.121970 -2.411331 3.375859
                                CHANNELS 3 Zrotation Xrotation Yrotation
                                JOINT RightHandThumb2
                                {
                                    OFFSET -2.803209 -0.000004 0.000004
                                    CHANNELS 3 Zrotation Xrotation Yrotation
                                    JOINT RightHandThumb3
                                    {
                                        OFFSET -2.395928 0.000004 -0.000003
                                        CHANNELS 3 Zrotation Xrotation Yrotation
                                        End Site
                                        {
                                            OFFSET -2.127676 0.000000 0.000000
                                        }
                                    }
                                }
                            }
                            JOINT RightHandIndex1
                            {
                                OFFSET -8.680779 0.000001 3.375859
                                CHANNELS 3 Zrotation Xrotation Yrotation
                                JOINT RightHandIndex2
                                {
                                    OFFSET -4.218179 0.000003 -0.000001
                                    CHANNELS 3 Zrotation Xrotation Yrotation
                                    JOINT RightHandIndex3
                                    {
                                        OFFSET -2.109090 -0.000002 0.000000
                                        CHANNELS 3 Zrotation Xrotation Yrotation
                                        End Site
                                        {
                                            OFFSET -1.872952 0.000000 0.000000
                                        }
                                    }
                                }
                            }
                            JOINT RightHandMiddle1
                            {
                                OFFSET -8.680779 -0.000002 1.118859
                                CHANNELS 3 Zrotation Xrotation Yrotation
                                JOINT RightHandMiddle2
                                {
                                    OFFSET -4.639998 0.000003 -0.000001
                                    CHANNELS 3 Zrotation Xrotation Yrotation
                                    JOINT RightHandMiddle3
                                    {
                                        OFFSET -2.530910 -0.000000 -0.000000
                                        CHANNELS 3 Zrotation Xrotation Yrotation
                                        End Site
                                        {
                                            OFFSET -2.247544 0.000000 0.000000
                                        }
                                    }
                                }
                            }
                            JOINT RightHandRing1
                            {
                                OFFSET -8.198519 -0.000004 -1.118859
                                CHANNELS 3 Zrotation Xrotation Yrotation
                                JOINT RightHandRing2
                                {
                                    OFFSET -4.218180 -0.000005 0.000000
                                    CHANNELS 3 Zrotation Xrotation Yrotation
                                    JOINT RightHandRing3
                                    {
                                        OFFSET -2.109090 0.000002 0.000002
                                        CHANNELS 3 Zrotation Xrotation Yrotation
                                        End Site
                                        {
                                            OFFSET -1.872952 0.000000 0.000000
                                        }
                                    }
                                }
                            }
                            JOINT RightHandPinky1
                            {
                                OFFSET -7.716249 0.000004 -3.375858
                                CHANNELS 3 Zrotation Xrotation Yrotation
                                JOINT RightHandPinky2
                                {
                                    OFFSET -3.374539 0.000003 -0.000000
                                    CHANNELS 3 Zrotation Xrotation Yrotation
                                    JOINT RightHandPinky3
                                    {
                                        OFFSET -1.687270 -0.000004 -0.000001
                                        CHANNELS 3 Zrotation Xrotation Yrotation
                                        End Site
                                        {
                                            OFFSET -1.498360 0.000000 0.000000
                                        }
                                    }
                                }
                            }
                        }
                    }
                }
            }
        }
    }
    JOINT LeftUpLeg
    {
        OFFSET 8.880377 0.000003 0.000001
        CHANNELS 3 Zrotation Xrotation Yrotation
        JOINT LeftLeg
        {
            OFFSET -0.000000 -40.387413 0.000001
            CHANNELS 3 Zrotation Xrotation Yrotation
            JOINT LeftFoot
            {
                OFFSET -0.000000 -36.911304 0.000000
                CHANNELS 3 Zrotation Xrotation Yrotation
                JOINT LeftToeBase
                {
                    OFFSET 0.000003 -5.772240 13.320597
                    CHANNELS 3 Zrotation Xrotation Yrotation
                    End Site
                    {
                        OFFSET 0.000000 0.000000 3.552151
                    }
                }
            }
        }
    }
    JOINT RightUpLeg
    {
        OFFSET -8.880380 -0.000003 -0.000001
        CHANNELS 3 Zrotation Xrotation Yrotation
        JOINT RightLeg
        {
            OFFSET 0.000001 -40.387405 0.000000
            CHANNELS 3 Zrotation Xrotation Yrotation
            JOINT RightFoot
            {
                OFFSET -0.000001 -36.911304 -0.000001
                CHANNELS 3 Zrotation Xrotation Yrotation
                JOINT RightToeBase
                {
                    OFFSET 0.000000 -5.772241 13.320600
                    CHANNELS 3 Zrotation Xrotation Yrotation
                    End Site
                    {
                        OFFSET 0.000000 0.000000 3.552151
                    }
                }
            }
        }
    }
}
MOTION
Frames: 4
Frame Time: 0.013889
63.252544    81.760750    -13.860581    -9.053039    4.247190    -0.389396    0.866575    -10.806319    4.612366    -6.366825    14.295018    5.983320    -8.113509    -19.693121    -13.957989    4.742451    7.544702    -12.441217    -1.095106    7.228547    -11.415678    -12.409029    55.273354    -28.526701    31.584410    18.842075    -62.287693    36.879597    0.993581    -21.608988    29.191683    35.845516    -47.727722    -18.336443    -2.762937    23.162285    -0.000000    0.000000    -0.000000    6.022318    17.906975    -1.373763    5.729578    0.000000    0.000003    5.729578    0.000000    0.000000    5.800514    8.954670    -0.663817    5.729579    0.000001    -0.000004    5.729578    -0.000002    0.000003    5.800515    -8.954672    -2.808719    5.729576    -0.000003    -0.000001    5.729579    0.000002    -0.000001    6.022317    -17.906977    -5.571338    5.729578    0.000000    0.000001    5.729577    0.000000    0.000001    -6.222272    -3.371700    15.839089    31.386526    34.113129    70.625465    -25.368668    2.072668    85.638214    -58.653458    5.454028    27.334658    -40.856346    26.415691    46.570339    12.176447    -0.115750    -23.317200    -0.000000    0.000000    -0.000000    -6.022322    17.906977    0.529790    -5.729578    -0.000000    0.000000    -5.729576    -0.000000    0.000000    -5.800517    8.954672    0.241838    -5.729578    0.000001    -0.000001    -5.729589    0.000000    0.000000    -5.800514    -8.954675    4.404049    -5.729576    0.000002    0.000001    -5.729578    -0.000001    -0.000000    -6.022325    -17.906979    8.761978    -5.729576    -0.000001    -0.000003    -5.729579    0.000002    0.000000    12.863869    -17.001993    11.010199    0.000001    35.678024    -0.000002    1.470756    -16.502743    -5.211893    -0.000000    2.231564    -0.000000    11.108041    -35.842903    -0.923338    -0.000000    58.635296    -0.000000    10.522696    7.433263    -6.739860    0.000000    4.694546    -0.000000    
63.071804    81.725540    -13.883837    -8.999959    4.339787    -0.553347    0.889430    -10.790462    4.740300    -6.521635    14.283761    6.144137    -8.549015    -19.648756    -14.019278    4.673632    7.536329    -12.336812    -1.218847    7.187413    -11.448741    -12.183236    55.176403    -28.631523    31.861580    19.086449    -62.250038    37.019089    0.918308    -21.637730    29.184187    35.852398    -47.709511    -18.170589    -2.692049    23.170172    -0.000000    0.000000    -0.000000    6.022318    17.906973    -1.202121    5.729579    -0.000000    0.000003    5.729578    0.000000    0.000003    5.800516    8.954671    -0.578003    5.729578    -0.000001    0.000007    5.729578    -0.000001    -0.000003    5.800515    -8.954671    -2.708152    5.729578    -0.000002    -0.000002    5.729579    -0.000002    0.000002    6.022320    -17.906975    -5.370178    5.729580    -0.000000    -0.000001    5.729577    0.000003    -0.000002    -6.374527    -3.215598    15.895537    30.928995    34.403961    70.972466    -24.846241    2.480324    84.660637    -58.289936    5.832495    27.721634    -41.145679    26.187233    46.576969    12.103727    -0.084412    -23.317329    -0.000000    0.000000    -0.000000    -6.022321    17.906975    0.916061    -5.729580    0.000001    0.000000    -5.729579    -0.000000    0.000000    -5.800513    8.954671    0.434972    -5.729579    0.000000    -0.000000    -5.729573    -0.000000    0.000000    -5.800514    -8.954673    4.543123    -5.729577    -0.000001    -0.000000    -5.729577    -0.000001    0.000000    -6.022324    -17.906975    9.040131    -5.729572    0.000000    -0.000001    -5.729584    -0.000000    0.000001    13.042398    -17.100262    11.274150    0.000001    35.791904    -0.000002    1.329102    -16.560692    -5.330751    -0.000000    2.196042    0.000000    10.765962    -35.828102    -1.078205    -0.000000    58.728680    0.000001    10.771753    5.533718    -5.878871    0.000001    4.522790    -0.000002    
62.944477    81.687782    -13.895861    -8.919319    4.396296    -0.642850    0.905720    -10.779562    4.831543    -6.602020    14.287485    6.252222    -8.982166    -19.557907    -14.077520    4.552539    7.559479    -12.227731    -1.355737    7.125669    -11.450465    -12.044108    55.071487    -28.716227    32.025520    19.249649    -62.207020    36.930508    0.851554    -21.718243    29.175508    35.861118    -47.637379    -18.048864    -2.640002    23.175838    -0.000000    0.000000    -0.000000    6.022317    17.906973    -1.096123    5.729579    0.000000    -0.000003    5.729578    0.000000    0.000001    5.800515    8.954671    -0.524998    5.729577    -0.000002    -0.000002    5.729578    0.000001    0.000001    5.800516    -8.954673    -2.674917    5.729579    0.000000    0.000001    5.729578    0.000000    0.000001    6.022321    -17.906977    -5.303718    5.729578    0.000004    0.000003    5.729579    -0.000000    -0.000001    -6.550795    -3.129283    15.940989    30.583780    34.625977    71.201378    -24.415810    2.751332    83.963921    -58.090000    6.086202    27.948792    -41.359192    26.033857    46.542732    12.056232    -0.063935    -23.317389    -0.000000    0.000000    -0.000000    -6.022321    17.906977    1.197705    -5.729573    -0.000001    -0.000000    -5.729583    0.000001    0.000001    -5.800510    8.954673    0.575793    -5.729581    0.000000    0.000000    -5.729578    0.000000    -0.000001    -5.800518    -8.954672    4.649275    -5.729582    -0.000001    -0.000000    -5.729576    0.000002    -0.000001    -6.022323    -17.906971    9.252433    -5.729576    0.000000    -0.000002    -5.729579    -0.000002    -0.000000    13.113454    -17.177675    11.432991    0.000000    35.897369    0.000000    1.259719    -16.614683    -5.417941    0.000000    2.135931    -0.000000    10.360434    -35.829792    -1.245512    -0.000001    58.780930    0.000002    10.668013    4.351037    -5.312344    -0.000001    4.152184    -0.000000    
62.824135    81.645409    -13.894464    -8.804195    4.458196    -0.732690    0.921457    -10.799873    4.905995    -6.685228    14.302676    6.345620    -9.448804    -19.459223    -14.128430    4.408026    7.566770    -12.095606    -1.515980    7.070522    -11.459250    -11.967707    54.967602    -28.727179    32.200645    19.382553    -62.211071    36.911411    0.846123    -21.649181    29.107491    35.922112    -47.547688    -17.966370    -2.604716    23.179617    -0.000000    0.000000    -0.000000    6.022320    17.906977    -1.015516    5.729580    -0.000000    0.000002    5.729578    0.000000    -0.000005    5.800515    8.954673    -0.484701    5.729578    0.000000    0.000002    5.729578    0.000001    0.000002    5.800515    -8.954674    -2.651634    5.729577    0.000003    -0.000006    5.729579    0.000000    0.000001    6.022316    -17.906973    -5.257156    5.729579    0.000000    0.000003    5.729575    -0.000004    -0.000007    -6.731735    -3.023252    15.989282    30.259214    34.904953    71.434372    -23.974979    2.995598    83.297691    -57.723049    6.440432    28.031599    -41.605629    25.841528    46.543995    11.990724    -0.035701    -23.317444    -0.000000    0.000000    -0.000000    -6.022321    17.906973    1.475900    -5.729580    0.000002    0.000001    -5.729577    -0.000001    -0.000001    -5.800522    8.954672    0.714893    -5.729584    0.000000    0.000001    -5.729580    0.000001    -0.000001    -5.800517    -8.954673    4.755593    -5.729580    -0.000001    0.000001    -5.729587    0.000001    0.000002    -6.022325    -17.906973    9.465068    -5.729580    0.000001    0.000000    -5.729577    0.000001    -0.000001    13.125319    -17.255217    11.531660    -0.000000    35.995770    -0.000000    1.234121    -16.648977    -5.425369    -0.000000    2.066675    -0.000001    9.854170    -35.798874    -1.421711    -0.000000    58.773369    -0.000000    10.376613    3.340484    -5.087560    0.000001    3.625436    -0.000001    
